<?xml version="1.0" encoding="UTF-8" standalone="no"?>
<!-- Created with Inkscape (http://www.inkscape.org/) -->

<svg
   xmlns:dc="http://purl.org/dc/elements/1.1/"
   xmlns:cc="http://creativecommons.org/ns#"
   xmlns:rdf="http://www.w3.org/1999/02/22-rdf-syntax-ns#"
   xmlns:svg="http://www.w3.org/2000/svg"
   xmlns="http://www.w3.org/2000/svg"
   xmlns:sodipodi="http://sodipodi.sourceforge.net/DTD/sodipodi-0.dtd"
   xmlns:inkscape="http://www.inkscape.org/namespaces/inkscape"
   id="svg13351"
   version="1.1"
   inkscape:version="0.91 r13725"
   xml:space="preserve"
   width="256"
   height="256"
   viewBox="0 0 256 256"
   sodipodi:docname="agg.svg"><metadata
     id="metadata13357"><rdf:RDF><cc:Work
         rdf:about=""><dc:format>image/svg+xml</dc:format><dc:type
           rdf:resource="http://purl.org/dc/dcmitype/StillImage" /><dc:title></dc:title></cc:Work></rdf:RDF></metadata><defs
     id="defs13355" /><sodipodi:namedview
     pagecolor="#ffffff"
     bordercolor="#666666"
     borderopacity="1"
     objecttolerance="10"
     gridtolerance="10"
     guidetolerance="10"
     inkscape:pageopacity="0"
     inkscape:pageshadow="2"
     inkscape:window-width="1600"
     inkscape:window-height="843"
     id="namedview13353"
     showgrid="false"
     fit-margin-top="0"
     fit-margin-left="0"
     fit-margin-right="0"
     fit-margin-bottom="0"
     inkscape:zoom="1.9070707"
     inkscape:cx="118.66701"
     inkscape:cy="128.38553"
     inkscape:window-x="0"
     inkscape:window-y="31"
     inkscape:window-maximized="1"
     inkscape:current-layer="g13359" /><g
     id="g13359"
     inkscape:groupmode="layer"
     inkscape:label="ink_ext_XXXXXX"
     transform="matrix(1.25,0,0,-1.25,-89.390564,345.39057)"><rect
       style="fill:#aa3939;fill-opacity:1;stroke:none;stroke-width:3.35680008;stroke-linecap:butt;stroke-linejoin:miter;stroke-miterlimit:4;stroke-dasharray:none;stroke-opacity:1"
       id="rect14006"
       width="198"
       height="197.58051"
       x="74.868385"
       y="-272.02942"
       transform="scale(1,-1)"
       rx="30" /><path
       inkscape:connector-curvature="0"
       id="path13379"
       style="fill:#ffffff;stroke:none;stroke-width:1.18171251;stroke-linecap:round;stroke-linejoin:bevel;stroke-miterlimit:6;stroke-dasharray:none;stroke-opacity:1;fill-opacity:1"
       d="m 210.27284,173.91245 c 0,20.08063 -16.27976,36.36039 -36.36038,36.36039 -20.08064,0 -36.3604,-16.27976 -36.3604,-36.36039 0,-20.08063 16.27976,-36.36039 36.3604,-36.36039 20.08062,0 36.36038,16.27976 36.36038,36.36039" /><path
       inkscape:connector-curvature="0"
       id="path13381"
       style="fill:#ffffff;stroke:none;stroke-width:1.18171251;stroke-linecap:round;stroke-linejoin:bevel;stroke-miterlimit:6;stroke-dasharray:none;stroke-opacity:1;fill-opacity:1"
       d="m 173.91246,217.54492 14.54414,29.0883 -7.27207,0 0,14.54416 -14.54415,0 0,-14.54416 -7.27208,0 14.54416,-29.0883" /><path
       inkscape:connector-curvature="0"
       id="path13383"
       style="fill:#ffffff;stroke:none;stroke-width:1.18171251;stroke-linecap:round;stroke-linejoin:bevel;stroke-miterlimit:6;stroke-dasharray:none;stroke-opacity:1;fill-opacity:1"
       d="m 130.27999,173.91245 -29.08831,-14.54415 0,7.27207 -14.544158,0 0,14.54416 14.544158,0 0,7.27208 29.08831,-14.54416" /><path
       inkscape:connector-curvature="0"
       id="path13385"
       style="fill:#ffffff;stroke:none;stroke-width:1.18171251;stroke-linecap:round;stroke-linejoin:bevel;stroke-miterlimit:6;stroke-dasharray:none;stroke-opacity:1;fill-opacity:1"
       d="m 217.54492,173.91245 29.0883,-14.54415 0,7.27207 14.54416,0 0,14.54416 -14.54416,0 0,7.27208 -29.0883,-14.54416" /><path
       inkscape:connector-curvature="0"
       id="path13387"
       style="fill:#ffffff;stroke:none;stroke-width:1.18171251;stroke-linecap:round;stroke-linejoin:bevel;stroke-miterlimit:6;stroke-dasharray:none;stroke-opacity:1;fill-opacity:1"
       d="m 173.91246,130.27998 14.54414,-29.08831 -7.27207,0 0,-14.544148 -14.54415,0 0,14.544148 -7.27208,0 14.54416,29.08831" /></g></svg>